# xmcd CD database file
#
# Track frame offsets:
#	150
#	16465
#	28155
#	44890
#	58675
#	75960
#	91792
#	106490
#	122567
#	137005
#	150067
#	163845
#	177012
#	188225
#	203077
#	215355
#
# Disc length: 3047 seconds
#
# Revision: 0
# Processed by: cddbd v1.5.2PL0 Copyright (c) Steve Scherf et al.
# Submitted via: CDex 1.70beta2
#
DISCID=cc0be510
DTITLE=Hugh Moffatt - Live and Alone
DYEAR=1900
DGENRE=Country
TTITLE0=When you held me in your arms
TTITLE1=The way love is
TTITLE2=How could I love her so much
TTITLE3=The lord don't take no prisoners
TTITLE4=Carolina star
TTITLE5=Old flames can't hold a candle to you
TTITLE6=Words at twenty paces
TTITLE7=Somewhere in Kansas
TTITLE8=Loving you
TTITLE9=Last night I dreamed of loving you
TTITLE10=I get lonely for you
TTITLE11=Rose of my heart
TTITLE12=Your sweet love
TTITLE13=I do
TTITLE14=For Mary
TTITLE15=I always turn to you
EXTD=
EXTT0=
EXTT1=
EXTT2=
EXTT3=
EXTT4=
EXTT5=
EXTT6=
EXTT7=
EXTT8=
EXTT9=
EXTT10=
EXTT11=
EXTT12=
EXTT13=
EXTT14=
EXTT15=
PLAYORDER=
